<svg preserveAspectRatio="none" overflow="visible" style="display: block;" width="9.49047" height="26.0132" viewBox="0 0 9.49047 26.0132" fill="none" xmlns="http://www.w3.org/2000/svg">
<path id="Vector 1430" d="M1.25659 0.418864L0.837729 0L0 0.837729L0.418864 1.25659L0.837729 0.837729L1.25659 0.418864ZM4.39191 26.0132L9.49047 21.4535L2.99239 19.3179L4.39191 26.0132ZM0.837729 0.837729L0.418864 1.25659C1.36409 2.20182 2.80948 4.00477 4.01581 6.2968C5.22238 8.58929 6.169 11.3315 6.169 14.1659H6.76137H7.35373C7.35373 11.0767 6.32581 8.14208 5.0642 5.74502C3.80235 3.34751 2.28591 1.44818 1.25659 0.418864L0.837729 0.837729ZM6.76137 14.1659H6.169C6.169 16.7036 5.87385 18.9637 5.47732 20.8244L6.05667 20.9478L6.63602 21.0713C7.04809 19.1377 7.35373 16.7947 7.35373 14.1659H6.76137Z" fill="white"/>
</svg>
